{"title":"Manny Montes Ft. Farruko - Conoce La Historia [1080p]","uid":12769809,"size":87970861,"categoryP":"video","categoryS":"music_videos","magnet":"?xt=urn:btih:2b77b66cbacede5748705d1cd74f6dd2693241ef&amp;dn=Manny+Montes+Ft.+Farruko+-+Conoce+La+Historia+%5B1080p%5D&amp;tr=udp%3A%2F%2Ftracker.leechers-paradise.org%3A6969&amp;tr=udp%3A%2F%2Fzer0day.ch%3A1337&amp;tr=udp%3A%2F%2Fopen.demonii.com%3A1337&amp;tr=udp%3A%2F%2Ftracker.coppersurfer.tk%3A6969&amp;tr=udp%3A%2F%2Fexodus.desync.com%3A6969","seeders":0,"leechers":1,"uploader":"MusicVideos-HQ","files":1,"time":1447650692,"description":"Capturas: http://i.imgur.com/jZjIiVR.jpg\r\n\r\nGeneral\r\n\r\nFormat                         : MPEG-4\r\nFormat profile                 : Base Media\r\nCodec ID                       : isom\r\nFile size                      : 83.9 MiB\r\nDuration                       : 4mn 25s\r\nOverall bit rate               : 2 654 Kbps\r\nWriting application            : Lavf56.40.101\r\n\r\nVideo\r\nID                             : 1\r\nFormat                         : AVC\r\nFormat/Info                    : Advanced Video Codec\r\nFormat profile                 :   \r\nFormat settings, CABAC         : Yes\r\nFormat settings, ReFrames      : 3 frames\r\nCodec ID                       : avc1\r\nCodec ID/Info                  : Advanced Video Coding\r\nDuration                       : 4mn 25s\r\nDuration_FirstFrame            : -42ms\r\nBit rate                       : 2 395 Kbps\r\nWidth                          : 1 920 pixels\r\nHeight                         : 1 080 pixels\r\nDisplay aspect ratio           : 16:9\r\nFrame rate mode                : Variable\r\nFrame rate                     : 24.000 fps\r\nMinimum frame rate             : 24.000 fps\r\nMaximum frame rate             : 24.013 fps\r\nColor space                    : YUV\r\nChroma subsampling             : 4:2:0\r\nBit depth                      : 8 bits\r\nScan type                      : Progressive\r\nBits/(Pixel*Frame)             : 0.048\r\nStream size                    : 75.7 MiB (90%)\r\n\r\nAudio\r\nID                             : 2\r\nFormat                         : AAC\r\nFormat/Info                    : Advanced Audio Codec\r\nFormat profile                 : LC\r\nCodec ID                       : 40\r\nDuration                       : 4mn 25s\r\nBit rate mode                  : Constant\r\nBit rate                       : 254 Kbps\r\nChannel(s)                     : 2 channels\r\nChannel positions              : Front: L R\r\nSampling rate                  : 44.1 KHz\r\nCompression mode               : Lossy\r\nStream size                    : 8.02 MiB (10%)","torrent":{"xt":"urn:btih:2b77b66cbacede5748705d1cd74f6dd2693241ef","amp;dn":"Manny+Montes+Ft.+Farruko+-+Conoce+La+Historia+%5B1080p%5D","amp;tr":["udp%3A%2F%2Ftracker.leechers-paradise.org%3A6969","udp%3A%2F%2Fzer0day.ch%3A1337","udp%3A%2F%2Fopen.demonii.com%3A1337","udp%3A%2F%2Ftracker.coppersurfer.tk%3A6969","udp%3A%2F%2Fexodus.desync.com%3A6969"],"infoHash":"2b77b66cbacede5748705d1cd74f6dd2693241ef","infoHashBuffer":{"type":"Buffer","data":[43,119,182,108,186,206,222,87,72,112,93,28,215,79,109,210,105,50,65,239]},"announce":[],"urlList":[]}}